<svg xmlns="http://www.w3.org/2000/svg" width="21.106" height="27.55" viewBox="0 0 21.106 27.55">
  <path id="Union_4" data-name="Union 4" d="M1480.443,27.01l-3.891-7.51-3.89,7.51a1,1,0,0,1-.89.54,1.073,1.073,0,0,1-.46-.11,1,1,0,0,1-.43-1.35l4.67-9V10.21l-8.81-2.34a1,1,0,1,1,.51-1.93l9.3,2.47,9.3-2.47a1,1,0,0,1,.509,1.93l-8.81,2.34V17.09l4.66,9a1,1,0,1,1-1.769.92ZM1473.583,3a3,3,0,1,1,3,3A3,3,0,0,1,1473.583,3Zm2,0a1,1,0,1,0,1-1A1,1,0,0,0,1475.583,3Z" transform="translate(-1466)" fill="#fff"/>
</svg>